# Blender v2.82 (sub 7) OBJ File: 'banana.blend'
# www.blender.org
mtllib banana.mtl
o Cylinder
v 0.000000 -0.938792 1.210835
v 0.866025 -0.450031 1.105417
v 0.866025 0.527491 0.894583
v -0.000000 1.016252 0.789165
v -0.866025 0.527490 0.894583
v -0.866025 -0.450031 1.105417
v 0.000000 -0.084640 3.453985
v 0.637368 0.251410 3.304040
v 0.637368 0.923509 3.004152
v 0.000000 1.259558 2.854207
v -0.637368 0.923509 3.004152
v -0.637368 0.251410 3.304041
v 0.000000 0.924783 4.519609
v 0.304800 1.085487 4.447904
v 0.304800 1.406896 4.304492
v 0.000000 1.567600 4.232786
v -0.304799 1.406896 4.304492
v -0.304799 1.085487 4.447904
v 0.000000 0.961278 4.601399
v 0.304800 1.121982 4.529694
v 0.304800 1.443390 4.386282
v 0.000000 1.604094 4.314576
v -0.304799 1.443390 4.386282
v -0.304799 1.121982 4.529694
v 0.000000 1.169005 5.066949
v 0.304800 1.329709 4.995243
v 0.304800 1.651117 4.851831
v 0.000000 1.811821 4.780126
v -0.304799 1.651117 4.851831
v -0.304799 1.329709 4.995243
v 0.000000 -0.938792 -1.210835
v 0.866025 -0.450031 -1.105417
v 0.866025 0.527491 -0.894583
v -0.000000 1.016252 -0.789165
v -0.866025 0.527490 -0.894583
v -0.866025 -0.450031 -1.105417
v 0.000000 -1.035548 0.000000
v 0.866025 -0.535548 0.000000
v 0.866025 0.464452 0.000000
v -0.000000 0.964452 0.000000
v -0.866025 0.464452 0.000000
v -0.866025 -0.535548 0.000000
v 0.000000 -0.084640 -3.453985
v 0.637368 0.251410 -3.304040
v 0.637368 0.923509 -3.004152
v 0.000000 1.259558 -2.854207
v -0.637368 0.923509 -3.004152
v -0.637368 0.251410 -3.304041
v 0.000000 0.924783 -4.519609
v 0.304800 1.085487 -4.447904
v 0.304800 1.406896 -4.304492
v 0.000000 1.567600 -4.232786
v -0.304799 1.406896 -4.304492
v -0.304799 1.085487 -4.447904
v 0.000000 0.961278 -4.601399
v 0.304800 1.121982 -4.529694
v 0.304800 1.443390 -4.386282
v 0.000000 1.604094 -4.314576
v -0.304799 1.443390 -4.386282
v -0.304799 1.121982 -4.529694
v 0.000000 1.169005 -5.066949
v 0.304800 1.329709 -4.995243
v 0.304800 1.651117 -4.851831
v 0.000000 1.811821 -4.780126
v -0.304799 1.651117 -4.851831
v -0.304799 1.329709 -4.995243
vt 0.289603 0.620258
vt 0.348915 0.588764
vt 0.396483 0.792757
vt 0.355703 0.829605
vt 0.655170 0.332150
vt 0.649758 0.435207
vt 0.530334 0.436152
vt 0.536457 0.323339
vt 0.134157 0.411519
vt 0.126626 0.500000
vt 0.007170 0.500000
vt 0.017385 0.390666
vt 0.195156 0.421946
vt 0.188968 0.500000
vt 0.345090 0.501730
vt 0.464580 0.501846
vt 0.467723 0.578665
vt 0.284415 0.512796
vt 0.725240 0.118460
vt 0.732903 0.005934
vt 0.851865 0.013883
vt 0.844698 0.116501
vt 0.182154 0.202868
vt 0.101867 0.173207
vt 0.202507 0.060070
vt 0.240901 0.074255
vt 0.839317 0.344518
vt 0.752027 0.353385
vt 0.590506 0.130047
vt 0.676378 0.142857
vt 0.224221 0.217698
vt 0.482486 0.778491
vt 0.695446 0.058392
vt 0.654381 0.052266
vt 0.656690 0.045342
vt 0.697756 0.051468
vt 0.501177 0.910278
vt 0.460048 0.917101
vt 0.843155 0.484419
vt 0.801411 0.488659
vt 0.807018 0.597323
vt 0.874457 0.559255
vt 0.862281 0.660297
vt 0.830031 0.678501
vt 0.440547 0.934722
vt 0.245261 0.066165
vt 0.206866 0.051981
vt 0.231681 0.005934
vt 0.270075 0.020119
vt 0.864101 0.666715
vt 0.831850 0.684920
vt 0.462263 0.924718
vt 0.442761 0.942339
vt 0.503391 0.917896
vt 0.844456 0.493194
vt 0.802713 0.497435
vt 0.888797 0.611471
vt 0.888797 0.576660
vt 0.925219 0.559255
vt 0.961641 0.576660
vt 0.961641 0.611471
vt 0.925219 0.628876
vt 0.515995 0.961253
vt 0.474867 0.968076
vt 0.851865 0.543146
vt 0.810122 0.547386
vt 0.669835 0.005934
vt 0.710900 0.012061
vt 0.874457 0.703248
vt 0.842207 0.721453
vt 0.455365 0.985697
vt 0.289603 0.403442
vt 0.355703 0.181553
vt 0.396483 0.203526
vt 0.348915 0.413301
vt 0.655170 0.542243
vt 0.536457 0.553467
vt 0.134157 0.588481
vt 0.017385 0.609334
vt 0.195156 0.578054
vt 0.467723 0.423879
vt 0.866205 0.434861
vt 0.985663 0.436819
vt 0.992830 0.539438
vt 0.873868 0.547386
vt 0.182154 0.797132
vt 0.240901 0.925745
vt 0.202507 0.939930
vt 0.101867 0.826793
vt 0.892992 0.199935
vt 0.980282 0.208802
vt 0.676378 0.770815
vt 0.590506 0.786502
vt 0.224221 0.782302
vt 0.482486 0.218669
vt 0.695446 0.903749
vt 0.697756 0.912371
vt 0.656691 0.919873
vt 0.654381 0.911251
vt 0.460048 0.072822
vt 0.501177 0.080064
vt 0.942376 0.064661
vt 0.984120 0.068902
vt 0.725240 0.683385
vt 0.748252 0.602206
vt 0.780503 0.620411
vt 0.792679 0.721453
vt 0.440547 0.062314
vt 0.245261 0.933835
vt 0.270075 0.979881
vt 0.231681 0.994066
vt 0.206866 0.948019
vt 0.750072 0.595788
vt 0.782322 0.613993
vt 0.442761 0.053889
vt 0.462263 0.064397
vt 0.503391 0.071639
vt 0.943678 0.055886
vt 0.985421 0.060126
vt 0.961641 0.658150
vt 0.961641 0.692961
vt 0.925219 0.710366
vt 0.888797 0.692961
vt 0.888797 0.658150
vt 0.925219 0.640745
vt 0.474867 0.016442
vt 0.515995 0.023684
vt 0.951087 0.005934
vt 0.992830 0.010175
vt 0.710900 0.961444
vt 0.669835 0.968946
vt 0.760428 0.559255
vt 0.792679 0.577460
vt 0.455365 0.005934
vn 0.8553 -0.4991 0.1394
vn 0.8735 0.4865 -0.0175
vn 0.8657 0.5004 0.0128
vn 0.8365 -0.4152 0.3576
vn -0.8553 -0.4991 0.1394
vn -0.8550 -0.5185 0.0000
vn 0.0000 -1.0000 0.0000
vn 0.0000 -0.9756 0.2194
vn -0.8735 0.4865 -0.0175
vn -0.8753 0.4836 0.0000
vn 0.0000 0.9956 -0.0936
vn 0.0000 1.0000 0.0000
vn 0.8753 0.4836 0.0000
vn 0.8550 -0.5185 0.0000
vn -0.8657 0.5004 0.0128
vn -0.8365 -0.4152 0.3576
vn -0.8607 -0.3768 0.3422
vn -0.8538 0.5117 -0.0954
vn 0.0000 -0.8508 0.5255
vn 0.0000 0.9861 -0.1660
vn 0.0000 -0.8260 0.5636
vn 0.0000 -0.9132 0.4075
vn -0.8660 -0.4566 0.2037
vn 0.0000 0.9503 -0.3112
vn 0.8538 0.5117 -0.0954
vn 0.8607 -0.3768 0.3422
vn -0.8660 0.4566 -0.2037
vn -0.6862 -0.1133 0.7185
vn -0.6862 0.6104 0.3956
vn 0.0000 0.9132 -0.4075
vn 0.8660 0.4566 -0.2037
vn 0.8660 -0.4566 0.2037
vn 0.0000 -0.4751 0.8799
vn 0.6862 -0.1133 0.7185
vn 0.6862 0.6104 0.3956
vn 0.0000 0.9722 0.2342
vn 0.8553 -0.4991 -0.1394
vn 0.8365 -0.4152 -0.3576
vn 0.8657 0.5004 -0.0128
vn 0.8735 0.4865 0.0175
vn -0.8553 -0.4991 -0.1394
vn 0.0000 -0.9756 -0.2194
vn -0.8735 0.4865 0.0175
vn 0.0000 0.9956 0.0936
vn -0.8657 0.5004 -0.0128
vn -0.8538 0.5117 0.0954
vn -0.8607 -0.3768 -0.3422
vn -0.8365 -0.4152 -0.3576
vn 0.0000 -0.8508 -0.5255
vn 0.0000 0.9861 0.1660
vn -0.8660 -0.4566 -0.2037
vn 0.0000 -0.9132 -0.4075
vn 0.0000 -0.8260 -0.5636
vn 0.8538 0.5117 0.0954
vn 0.0000 0.9503 0.3112
vn 0.8607 -0.3768 -0.3422
vn -0.8660 0.4566 0.2037
vn -0.6862 0.6104 -0.3956
vn -0.6862 -0.1133 -0.7185
vn 0.0000 0.9132 0.4075
vn 0.8660 -0.4566 -0.2037
vn 0.8660 0.4566 0.2037
vn 0.0000 -0.4751 -0.8799
vn 0.0000 0.9722 -0.2342
vn 0.6862 0.6104 -0.3956
vn 0.6862 -0.1133 -0.7185
usemtl Material
s 1
f 2/1/1 3/2/2 9/3/3 8/4/4
f 6/5/5 42/6/6 37/7/7 1/8/8
f 5/9/9 41/10/10 42/11/6 6/12/5
f 4/13/11 40/14/12 41/10/10 5/9/9
f 3/2/2 39/15/13 40/16/12 4/17/11
f 2/1/1 38/18/14 39/15/13 3/2/2
f 1/19/8 37/20/7 38/21/14 2/22/1
f 11/23/15 12/24/16 18/25/17 17/26/18
f 1/19/8 2/22/1 8/27/4 7/28/19
f 6/5/5 1/8/8 7/29/19 12/30/16
f 5/9/9 6/12/5 12/24/16 11/23/15
f 4/13/11 5/9/9 11/23/15 10/31/20
f 3/2/2 4/17/11 10/32/20 9/3/3
f 18/33/17 13/34/21 19/35/22 24/36/23
f 9/3/3 10/32/20 16/37/24 15/38/25
f 7/28/19 8/27/4 14/39/26 13/40/21
f 12/30/16 7/29/19 13/34/21 18/33/17
f 10/41/20 11/42/15 17/43/18 16/44/24
f 8/4/4 9/3/3 15/38/25 14/45/26
f 23/46/27 24/47/23 30/48/28 29/49/29
f 16/44/24 17/43/18 23/50/27 22/51/30
f 14/45/26 15/38/25 21/52/31 20/53/32
f 17/26/18 18/25/17 24/47/23 23/46/27
f 15/38/25 16/37/24 22/54/30 21/52/31
f 13/40/21 14/39/26 20/55/32 19/56/22
f 25/57/33 26/58/34 27/59/35 28/60/36 29/61/29 30/62/28
f 21/52/31 22/54/30 28/63/36 27/64/35
f 19/56/22 20/55/32 26/65/34 25/66/33
f 24/36/23 19/35/22 25/67/33 30/68/28
f 22/51/30 23/50/27 29/69/29 28/70/36
f 20/53/32 21/52/31 27/64/35 26/71/34
f 32/72/37 44/73/38 45/74/39 33/75/40
f 36/76/41 31/77/42 37/7/7 42/6/6
f 35/78/43 36/79/41 42/11/6 41/10/10
f 34/80/44 35/78/43 41/10/10 40/14/12
f 33/75/40 34/81/44 40/16/12 39/15/13
f 32/72/37 33/75/40 39/15/13 38/18/14
f 31/82/42 32/83/37 38/84/14 37/85/7
f 47/86/45 53/87/46 54/88/47 48/89/48
f 31/82/42 43/90/49 44/91/38 32/83/37
f 36/76/41 48/92/48 43/93/49 31/77/42
f 35/78/43 47/86/45 48/89/48 36/79/41
f 34/80/44 46/94/50 47/86/45 35/78/43
f 33/75/40 45/74/39 46/95/50 34/81/44
f 54/96/47 60/97/51 55/98/52 49/99/53
f 45/74/39 51/100/54 52/101/55 46/95/50
f 43/90/49 49/102/53 50/103/56 44/91/38
f 48/92/48 54/96/47 49/99/53 43/93/49
f 46/104/50 52/105/55 53/106/46 47/107/45
f 44/73/38 50/108/56 51/100/54 45/74/39
f 59/109/57 65/110/58 66/111/59 60/112/51
f 52/105/55 58/113/60 59/114/57 53/106/46
f 50/108/56 56/115/61 57/116/62 51/100/54
f 53/87/46 59/109/57 60/112/51 54/88/47
f 51/100/54 57/116/62 58/117/60 52/101/55
f 49/102/53 55/118/52 56/119/61 50/103/56
f 61/120/63 66/121/59 65/122/58 64/123/64 63/124/65 62/125/66
f 57/116/62 63/126/65 64/127/64 58/117/60
f 55/118/52 61/128/63 62/129/66 56/119/61
f 60/97/51 66/130/59 61/131/63 55/98/52
f 58/113/60 64/132/64 65/133/58 59/114/57
f 56/115/61 62/134/66 63/126/65 57/116/62
